<svg width="70" height="33" viewBox="0 0 70 33" fill="none" xmlns="http://www.w3.org/2000/svg">
<rect x="0.5" y="0.5" width="69" height="32" rx="5.5" fill="white" stroke="#D9D9D9"/>
<path d="M54.8829 19.6289H54.9327L57.7227 13.3525H60.1319L55.9708 21.4766C55.0209 23.3369 53.9331 23.9502 51.6221 23.9502C51.4456 23.9502 50.8592 23.9364 50.7217 23.9092V22.6348C50.8688 22.6484 51.2311 22.6621 51.417 22.6621C52.4647 22.6621 53.0518 22.3549 53.4141 21.5576L53.6299 21.0879L49.6153 13.3525H52.0928L54.8829 19.6289ZM20.0118 12.4121C20.5406 12.4394 22.0687 12.549 23.0479 13.5576C22.969 13.5987 21.2363 14.2938 21.2559 15.752C21.2758 17.4934 23.4421 18.0734 23.4688 18.0889C23.4492 18.1298 23.1262 18.9137 22.3331 19.7178C21.6379 20.4265 20.9229 21.122 19.7872 21.1357C18.6904 21.1494 18.3277 20.6787 17.0645 20.6787C15.8111 20.6787 15.3994 21.1222 14.3614 21.1494C13.2648 21.1765 12.4325 20.3991 11.7374 19.6904C10.3175 18.2593 9.23043 15.6557 10.6993 13.8975C11.4142 13.0185 12.717 12.4668 14.1172 12.4531C15.1941 12.4396 16.1829 12.95 16.8389 12.9502C17.4852 12.9502 18.6507 12.3577 20.0118 12.4121ZM44.2198 13.251C46.9321 13.2511 48.6944 14.2392 48.6944 15.7725V21.0605H46.501V19.7861H46.4522C45.8255 20.6176 44.4446 21.1426 42.9561 21.1426C40.7529 21.1426 39.215 20.2291 39.2149 18.8525C39.2149 17.4896 40.7037 16.7058 43.4551 16.5898L46.4131 16.4668V15.8809C46.413 15.0155 45.5996 14.5449 44.1504 14.5449C42.9559 14.545 42.0845 14.9747 41.9083 15.6289H39.7735C39.8421 14.2523 41.7031 13.251 44.2198 13.251ZM33.6045 10.4355C36.5615 10.4357 38.6277 11.8534 38.628 13.9248C38.628 15.9965 36.522 17.4277 33.5254 17.4277H30.2452V21.0605H27.875V10.4355H33.6045ZM43.7784 17.6943C42.2998 17.7557 41.5264 18.1437 41.5264 18.8115C41.5264 19.4589 42.3296 19.8818 43.5928 19.8818C45.1986 19.8817 46.4131 19.1726 46.4131 18.1777V17.5781L43.7784 17.6943ZM30.2452 16.0449H32.9678C35.0338 16.0448 36.209 15.2741 36.209 13.9316C36.2088 12.5894 35.0336 11.8263 32.9776 11.8262H30.2452V16.0449ZM20.0215 9.625C20.1195 10.3065 19.7379 10.9742 19.1602 11.4717C18.5727 11.9555 17.6325 12.3377 16.6924 12.2832C16.5749 11.629 17.0357 10.9332 17.5743 10.5039C18.1618 10.0067 19.1894 9.65235 20.0215 9.625Z" fill="black"/>
</svg>
