<svg width="56" height="56" viewBox="0 0 56 56" fill="none" xmlns="http://www.w3.org/2000/svg">
<rect x="0.5" y="0.5" width="55" height="55" rx="8" fill="#E7EAEF"/>
<path d="M36.9 31.95C37.3375 30.8875 37.575 29.75 37.575 28.5C37.575 27.6 37.4375 26.7375 37.2 25.9375C36.3875 26.125 35.5375 26.225 34.65 26.225C32.8325 26.2269 31.0411 25.7919 29.4269 24.9565C27.8127 24.1211 26.423 22.9099 25.375 21.425C24.2549 24.1384 22.1396 26.3208 19.4625 27.525C19.4125 27.8375 19.4125 28.175 19.4125 28.5C19.4125 29.6934 19.6476 30.8751 20.1042 31.9776C20.5609 33.0802 21.2303 34.082 22.0742 34.9258C23.7784 36.6301 26.0898 37.5875 28.5 37.5875C29.8125 37.5875 31.075 37.3 32.2125 36.7875C32.925 38.15 33.25 38.825 33.225 38.825C31.175 39.5125 29.5875 39.85 28.5 39.85C25.475 39.85 22.5875 38.6625 20.4625 36.525C19.1688 35.2374 18.2078 33.6544 17.6625 31.9125H16V26.225H17.3625C17.7753 24.2156 18.7244 22.3555 20.109 20.842C21.4936 19.3285 23.2621 18.218 25.2269 17.6284C27.1917 17.0389 29.2794 16.9922 31.2686 17.4934C33.2577 17.9945 35.0741 19.0249 36.525 20.475C38.0997 22.0445 39.1741 24.0454 39.6125 26.225H41V31.9125H40.925L36.475 36L29.85 35.25V33.1625H35.8875L36.9 31.95ZM25.0875 28.2125C25.4625 28.2125 25.825 28.3625 26.0875 28.6375C26.3513 28.9035 26.4993 29.2629 26.4993 29.6375C26.4993 30.0121 26.3513 30.3715 26.0875 30.6375C25.825 30.9 25.4625 31.05 25.0875 31.05C24.3 31.05 23.6625 30.425 23.6625 29.6375C23.6625 28.85 24.3 28.2125 25.0875 28.2125ZM31.9 28.2125C32.6875 28.2125 33.3125 28.85 33.3125 29.6375C33.3125 30.425 32.6875 31.05 31.9 31.05C31.1125 31.05 30.475 30.425 30.475 29.6375C30.475 29.2596 30.6251 28.8971 30.8924 28.6299C31.1596 28.3626 31.5221 28.2125 31.9 28.2125Z" fill="#0A3161"/>
</svg>
