<svg width="56" height="56" viewBox="0 0 56 56" fill="none" xmlns="http://www.w3.org/2000/svg">
<rect x="0.166748" y="0.5" width="55" height="55" rx="8" fill="#E7EAEF"/>
<path d="M27.6667 16C20.7742 16 15.1667 21.6075 15.1667 28.5C15.1667 35.3925 20.7742 41 27.6667 41C34.5592 41 40.1667 35.3925 40.1667 28.5C40.1667 21.6075 34.5592 16 27.6667 16ZM17.6667 28.5C17.6667 27.3763 17.8617 26.2975 18.2055 25.2887L20.1667 27.25L22.6667 29.75V32.25L25.1667 34.75L26.4167 36V38.4137C21.493 37.795 17.6667 33.59 17.6667 28.5ZM35.5792 34.5912C34.763 33.9337 33.5255 33.5 32.6667 33.5V32.25C32.6667 31.587 32.4034 30.9511 31.9345 30.4822C31.4657 30.0134 30.8298 29.75 30.1667 29.75H25.1667V26C25.8298 26 26.4657 25.7366 26.9345 25.2678C27.4034 24.7989 27.6667 24.163 27.6667 23.5V22.25H28.9167C29.5798 22.25 30.2157 21.9866 30.6845 21.5178C31.1534 21.0489 31.4167 20.413 31.4167 19.75V19.2363C35.0767 20.7225 37.6667 24.3125 37.6667 28.5C37.6662 30.7058 36.9318 32.8488 35.5792 34.5912Z" fill="#0A3161"/>
</svg>
