<svg width="56" height="55" viewBox="0 0 56 55" fill="none" xmlns="http://www.w3.org/2000/svg">
<rect x="0.5" width="55" height="55" rx="8" fill="#E7EAEF"/>
<path d="M22.375 36.875V44.375L28 40.625L33.625 44.375V36.875M31.6694 13.0156L31.0638 12.1831C30.7119 11.7004 30.251 11.3077 29.7186 11.0369C29.1862 10.7661 28.5973 10.625 28 10.625C27.4027 10.625 26.8138 10.7661 26.2814 11.0369C25.749 11.3077 25.2881 11.7004 24.9363 12.1831L24.3306 13.0156L23.3125 12.8562C22.7225 12.7632 22.1189 12.811 21.5509 12.9957C20.9829 13.1805 20.4667 13.497 20.0444 13.9193C19.622 14.3417 19.3056 14.8579 19.1208 15.4259C18.936 15.9939 18.8882 16.5975 18.9813 17.1875L19.1406 18.2056L18.3081 18.8112C17.8247 19.1626 17.4313 19.6233 17.1601 20.1558C16.8888 20.6883 16.7474 21.2774 16.7474 21.875C16.7474 22.4726 16.8888 23.0617 17.1601 23.5941C17.4313 24.1266 17.8247 24.5874 18.3081 24.9387L19.1406 25.5443L18.9813 26.5606C18.8879 27.1507 18.9355 27.7546 19.1201 28.3228C19.3047 28.891 19.6211 29.4075 20.0435 29.8301C20.4659 30.2526 20.9822 30.5693 21.5504 30.7541C22.1185 30.939 22.7224 30.9868 23.3125 30.8937L24.3306 30.7343L24.9363 31.5668C25.2881 32.0495 25.749 32.4423 26.2814 32.713C26.8138 32.9838 27.4027 33.1249 28 33.1249C28.5973 33.1249 29.1862 32.9838 29.7186 32.713C30.251 32.4423 30.7119 32.0495 31.0638 31.5668L31.6694 30.7343L32.6856 30.8937C33.2758 30.9871 33.8796 30.9395 34.4478 30.7549C35.0161 30.5703 35.5326 30.2539 35.9551 29.8315C36.3777 29.4091 36.6943 28.8928 36.8792 28.3246C37.0641 27.7565 37.1119 27.1526 37.0188 26.5625L36.8594 25.5443L37.6919 24.9387C38.1746 24.5869 38.5673 24.126 38.8381 23.5936C39.1089 23.0611 39.25 22.4723 39.25 21.875C39.25 21.2777 39.1089 20.6888 38.8381 20.1564C38.5673 19.624 38.1746 19.163 37.6919 18.8112L36.8594 18.2056L37.0188 17.1893C37.1121 16.5992 37.0646 15.9954 36.88 15.4271C36.6954 14.8589 36.3789 14.3424 35.9566 13.9198C35.5342 13.4973 35.0178 13.1806 34.4497 12.9958C33.8815 12.8109 33.2777 12.7631 32.6875 12.8562L31.6694 13.0156Z" stroke="#0A3161" stroke-width="2" stroke-linecap="round" stroke-linejoin="round"/>
</svg>
