<svg width="40" height="41" viewBox="0 0 40 41" fill="none" xmlns="http://www.w3.org/2000/svg">
<rect y="0.5" width="40" height="40" rx="8" fill="#E7EAEF"/>
<path d="M20 6.04999L32.5 10.425V20.5C32.5 25.6587 29.3338 29.265 26.38 31.5037C24.5982 32.8431 22.6429 33.9343 20.5675 34.7475L20.4588 34.7887L20.4275 34.8L20.4188 34.8025L20.415 34.8037C20.4138 34.8037 20.4125 34.8037 20 33.625L19.5863 34.805L19.5813 34.8025L19.5725 34.8L19.5413 34.7875L19.4325 34.7475C18.843 34.5195 18.2633 34.2668 17.695 33.99C16.2605 33.2931 14.8959 32.4606 13.62 31.5037C10.6675 29.265 7.5 25.6587 7.5 20.5V10.425L20 6.04999ZM20 33.625L19.5863 34.805L20 34.95L20.4138 34.805L20 33.625ZM20 32.285L20.0113 32.28C21.7408 31.5651 23.3733 30.6348 24.87 29.5112C27.5425 27.4875 30 24.5287 30 20.5V12.2L20 8.69999L10 12.2V20.5C10 24.5287 12.4575 27.485 15.13 29.5125C16.63 30.6382 18.2663 31.5698 20 32.285ZM27.59 15.9287L18.7513 24.7675L13.4475 19.465L15.2163 17.6962L18.75 21.2325L25.8213 14.1612L27.59 15.9287Z" fill="#0A3161"/>
</svg>
