<svg width="40" height="41" viewBox="0 0 40 41" fill="none" xmlns="http://www.w3.org/2000/svg">
<rect y="0.5" width="40" height="40" rx="8" fill="#E7EAEF"/>
<path fill-rule="evenodd" clip-rule="evenodd" d="M15.2787 13.645C15.7665 13.1072 16.0877 12.4393 16.2032 11.7224C16.3187 11.0055 16.2236 10.2706 15.9295 9.60671C15.6353 8.94286 15.1548 8.37867 14.5461 7.98266C13.9375 7.58666 13.227 7.37585 12.5009 7.37585C11.7748 7.37585 11.0643 7.58666 10.4557 7.98266C9.84712 8.37867 9.36657 8.94286 9.07242 9.60671C8.77828 10.2706 8.68318 11.0055 8.79869 11.7224C8.9142 12.4393 9.23534 13.1072 9.72312 13.645C9.57313 13.7238 9.42938 13.8088 9.29188 13.9C8.435 14.4719 7.88562 15.22 7.5425 15.9119C7.13352 16.7453 6.90601 17.656 6.875 18.5838V22.375C6.875 22.8723 7.07254 23.3492 7.42417 23.7009C7.77581 24.0525 8.25272 24.25 8.75 24.25H13.4375C13.7657 23.584 14.1987 22.975 14.72 22.4463L14.6956 22.375H8.75V18.625C8.75 18.625 8.75 14.875 12.5 14.875C14.3881 14.875 15.3256 15.8257 15.7906 16.7688C16.2125 16.2925 16.715 15.8875 17.2775 15.5763C16.8045 14.7587 16.1121 14.0897 15.2787 13.645ZM12.5 13C12.9973 13 13.4742 12.8025 13.8258 12.4509C14.1775 12.0992 14.375 11.6223 14.375 11.125C14.375 10.6278 14.1775 10.1508 13.8258 9.79921C13.4742 9.44758 12.9973 9.25003 12.5 9.25003C12.0027 9.25003 11.5258 9.44758 11.1742 9.79921C10.8225 10.1508 10.625 10.6278 10.625 11.125C10.625 11.6223 10.8225 12.0992 11.1742 12.4509C11.5258 12.8025 12.0027 13 12.5 13ZM31.25 24.25H26.5625C26.2343 23.584 25.8013 22.975 25.28 22.4463L25.3044 22.375H31.25V18.625C31.25 18.625 31.25 14.875 27.5 14.875C25.6119 14.875 24.6744 15.8257 24.2094 16.7688C23.7852 16.2896 23.2824 15.8863 22.7225 15.5763C23.1955 14.7587 23.8879 14.0897 24.7212 13.645C24.2335 13.1072 23.9123 12.4393 23.7968 11.7224C23.6813 11.0055 23.7764 10.2706 24.0705 9.60671C24.3647 8.94286 24.8452 8.37867 25.4539 7.98266C26.0625 7.58666 26.773 7.37585 27.4991 7.37585C28.2252 7.37585 28.9357 7.58666 29.5443 7.98266C30.1529 8.37867 30.6334 8.94286 30.9276 9.60671C31.2217 10.2706 31.3168 11.0055 31.2013 11.7224C31.0858 12.4393 30.7647 13.1072 30.2769 13.645C30.4269 13.7238 30.5706 13.8088 30.7081 13.9C31.565 14.4719 32.1144 15.22 32.4575 15.9119C32.8604 16.7248 33.0879 17.6135 33.125 18.52V22.375C33.125 22.8723 32.9275 23.3492 32.5758 23.7009C32.2242 24.0525 31.7473 24.25 31.25 24.25ZM27.5 13C27.9973 13 28.4742 12.8025 28.8258 12.4509C29.1775 12.0992 29.375 11.6223 29.375 11.125C29.375 10.6278 29.1775 10.1508 28.8258 9.79921C28.4742 9.44758 27.9973 9.25003 27.5 9.25003C27.0027 9.25003 26.5258 9.44758 26.1742 9.79921C25.8225 10.1508 25.625 10.6278 25.625 11.125C25.625 11.6223 25.8225 12.0992 26.1742 12.4509C26.5258 12.8025 27.0027 13 27.5 13Z" fill="#0A3161"/>
<path fill-rule="evenodd" clip-rule="evenodd" d="M23.75 20.5C23.75 21.4694 23.3825 22.3544 22.7788 23.02C23.7235 23.5316 24.4856 24.3245 24.9594 25.2888C25.3699 26.1202 25.5969 27.0301 25.625 27.9569V31.75C25.625 32.2473 25.4275 32.7242 25.0758 33.0758C24.7242 33.4275 24.2473 33.625 23.75 33.625H16.25C15.7527 33.625 15.2758 33.4275 14.9242 33.0758C14.5725 32.7242 14.375 32.2473 14.375 31.75V27.9588C14.3759 27.8743 14.3796 27.7899 14.3863 27.7056C14.4476 26.8647 14.6704 26.0435 15.0425 25.2869C15.5158 24.3229 16.2772 23.53 17.2213 23.0181C16.8124 22.567 16.5195 22.023 16.368 21.4332C16.2164 20.8435 16.2108 20.2257 16.3515 19.6333C16.4922 19.0409 16.7751 18.4917 17.1757 18.0331C17.5762 17.5745 18.0824 17.2203 18.6505 17.0012C19.2186 16.7821 19.8315 16.7046 20.4363 16.7755C21.0411 16.8463 21.6195 17.0634 22.1216 17.4078C22.6236 17.7523 23.0343 18.2139 23.318 18.7526C23.6017 19.2914 23.75 19.8911 23.75 20.5ZM16.25 28V31.75H23.75V28C23.75 28 23.75 24.25 20 24.25C16.25 24.25 16.25 28 16.25 28ZM21.875 20.5C21.875 20.9973 21.6775 21.4742 21.3258 21.8258C20.9742 22.1775 20.4973 22.375 20 22.375C19.5027 22.375 19.0258 22.1775 18.6742 21.8258C18.3225 21.4742 18.125 20.9973 18.125 20.5C18.125 20.0027 18.3225 19.5258 18.6742 19.1742C19.0258 18.8226 19.5027 18.625 20 18.625C20.4973 18.625 20.9742 18.8226 21.3258 19.1742C21.6775 19.5258 21.875 20.0027 21.875 20.5Z" fill="#0A3161"/>
</svg>
