<svg width="40" height="41" viewBox="0 0 40 41" fill="none" xmlns="http://www.w3.org/2000/svg">
<rect y="0.5" width="40" height="40" rx="8" fill="#E7EAEF"/>
<path fill-rule="evenodd" clip-rule="evenodd" d="M31.6 17.015C31.6749 17.2523 31.84 17.4508 32.0598 17.5676C32.2795 17.6845 32.5363 17.7105 32.775 17.64C33.275 17.49 33.55 16.965 33.4 16.465C33.2 15.8025 32.95 15.1525 32.65 14.5275C32.5983 14.4151 32.5248 14.3142 32.4337 14.2306C32.3426 14.1469 32.2357 14.0823 32.1194 14.0404C32.003 13.9985 31.8795 13.9802 31.7559 13.9866C31.6324 13.9929 31.5114 14.0238 31.4 14.0775C30.9375 14.3025 30.725 14.8525 30.95 15.3275C31.2 15.8775 31.425 16.44 31.6 17.015ZM29.0625 12.54C29.25 12.765 29.525 12.8775 29.7875 12.8775C30 12.8775 30.2125 12.815 30.3875 12.665C30.775 12.3275 30.8375 11.74 30.5 11.34C30.2875 11.09 30.075 10.865 29.85 10.64C29.625 10.415 29.4 10.2025 29.175 10.0025C29.0834 9.91984 28.9762 9.85617 28.8598 9.81517C28.7434 9.77417 28.6201 9.75666 28.4969 9.76363C28.3736 9.7706 28.253 9.80193 28.142 9.85581C28.031 9.90968 27.9317 9.98503 27.85 10.0775C27.5 10.465 27.5375 11.065 27.925 11.4025C28.125 11.5775 28.325 11.765 28.525 11.965C28.7125 12.14 28.8875 12.34 29.0625 12.54ZM25.5063 9.61499H25.5125H25.5H25.5063ZM25.1125 9.52749C25.235 9.58999 25.37 9.61499 25.5063 9.61499C25.7193 9.61491 25.926 9.54246 26.0924 9.40953C26.2589 9.27659 26.3753 9.09105 26.4225 8.88332C26.4697 8.67558 26.445 8.45797 26.3523 8.26614C26.2596 8.07431 26.1046 7.91965 25.9125 7.82749C25.2375 7.50249 24.625 7.26499 24.0125 7.08999C23.7738 7.02037 23.5172 7.04843 23.2992 7.16798C23.0812 7.28753 22.9196 7.4888 22.85 7.72749C22.7804 7.96619 22.8084 8.22276 22.928 8.44077C23.0475 8.65878 23.2488 8.82037 23.4875 8.88999C24 9.03999 24.525 9.25249 25.1125 9.52749ZM20 33.9275C12.5875 33.9275 6.5625 27.9025 6.5625 20.49C6.5625 13.0775 12.5875 7.05249 20 7.05249C20.5125 7.05249 20.9375 7.47749 20.9375 7.98999C20.9375 8.50249 20.5125 8.92749 20 8.92749C13.625 8.92749 8.4375 14.115 8.4375 20.49C8.4375 26.865 13.625 32.0525 20 32.0525C26.375 32.0525 31.5625 26.865 31.5625 20.49C31.5625 19.9775 31.9875 19.5525 32.5 19.5525C33.0125 19.5525 33.4375 19.9775 33.4375 20.49C33.4375 27.9025 27.4125 33.9275 20 33.9275ZM25 21.4275H20C19.4875 21.4275 19.0625 21.0025 19.0625 20.49V12.99C19.0625 12.4775 19.4875 12.0525 20 12.0525C20.5125 12.0525 20.9375 12.4775 20.9375 12.99V19.5525H25C25.5125 19.5525 25.9375 19.9775 25.9375 20.49C25.9375 21.0025 25.5125 21.4275 25 21.4275Z" fill="#0A3161"/>
</svg>
