<svg width="56" height="56" viewBox="0 0 56 56" fill="none" xmlns="http://www.w3.org/2000/svg">
<rect x="0.833374" y="0.5" width="55" height="55" rx="8" fill="#E7EAEF"/>
<path fill-rule="evenodd" clip-rule="evenodd" d="M23.6121 21.645C24.0999 21.1072 24.421 20.4393 24.5366 19.7224C24.6521 19.0055 24.557 18.2706 24.2628 17.6067C23.9687 16.9429 23.4881 16.3787 22.8795 15.9827C22.2709 15.5867 21.5604 15.3759 20.8343 15.3759C20.1082 15.3759 19.3977 15.5867 18.7891 15.9827C18.1805 16.3787 17.6999 16.9429 17.4058 17.6067C17.1116 18.2706 17.0166 19.0055 17.1321 19.7224C17.2476 20.4393 17.5687 21.1072 18.0565 21.645C17.9065 21.7238 17.7627 21.8088 17.6252 21.9C16.7684 22.4719 16.219 23.22 15.8759 23.9119C15.4669 24.7453 15.2394 25.656 15.2084 26.5838V30.375C15.2084 30.8723 15.4059 31.3492 15.7575 31.7009C16.1092 32.0525 16.5861 32.25 17.0834 32.25H21.7709C22.0991 31.584 22.5321 30.975 23.0534 30.4463L23.029 30.375H17.0834V26.625C17.0834 26.625 17.0834 22.875 20.8334 22.875C22.7215 22.875 23.659 23.8257 24.124 24.7688C24.5459 24.2925 25.0484 23.8875 25.6109 23.5763C25.1378 22.7587 24.4455 22.0897 23.6121 21.645ZM20.8334 21C21.3307 21 21.8076 20.8025 22.1592 20.4509C22.5108 20.0992 22.7084 19.6223 22.7084 19.125C22.7084 18.6278 22.5108 18.1508 22.1592 17.7992C21.8076 17.4476 21.3307 17.25 20.8334 17.25C20.3361 17.25 19.8592 17.4476 19.5075 17.7992C19.1559 18.1508 18.9584 18.6278 18.9584 19.125C18.9584 19.6223 19.1559 20.0992 19.5075 20.4509C19.8592 20.8025 20.3361 21 20.8334 21ZM39.5834 32.25H34.8959C34.5677 31.584 34.1346 30.975 33.6134 30.4463L33.6378 30.375H39.5834V26.625C39.5834 26.625 39.5834 22.875 35.8334 22.875C33.9452 22.875 33.0077 23.8257 32.5427 24.7688C32.1186 24.2896 31.6157 23.8863 31.0559 23.5763C31.5289 22.7587 32.2212 22.0897 33.0546 21.645C32.5668 21.1072 32.2457 20.4393 32.1302 19.7224C32.0147 19.0055 32.1098 18.2706 32.4039 17.6067C32.6981 16.9429 33.1786 16.3787 33.7872 15.9827C34.3958 15.5867 35.1063 15.3759 35.8324 15.3759C36.5585 15.3759 37.269 15.5867 37.8776 15.9827C38.4862 16.3787 38.9668 16.9429 39.261 17.6067C39.5551 18.2706 39.6502 19.0055 39.5347 19.7224C39.4192 20.4393 39.098 21.1072 38.6102 21.645C38.7602 21.7238 38.904 21.8088 39.0415 21.9C39.8984 22.4719 40.4477 23.22 40.7909 23.9119C41.1938 24.7248 41.4212 25.6135 41.4584 26.52V30.375C41.4584 30.8723 41.2608 31.3492 40.9092 31.7009C40.5576 32.0525 40.0807 32.25 39.5834 32.25ZM35.8334 21C36.3307 21 36.8076 20.8025 37.1592 20.4509C37.5108 20.0992 37.7084 19.6223 37.7084 19.125C37.7084 18.6278 37.5108 18.1508 37.1592 17.7992C36.8076 17.4476 36.3307 17.25 35.8334 17.25C35.3361 17.25 34.8592 17.4476 34.5075 17.7992C34.1559 18.1508 33.9584 18.6278 33.9584 19.125C33.9584 19.6223 34.1559 20.0992 34.5075 20.4509C34.8592 20.8025 35.3361 21 35.8334 21Z" fill="#0A3161"/>
<path fill-rule="evenodd" clip-rule="evenodd" d="M32.0834 28.5C32.0834 29.4694 31.7159 30.3544 31.1121 31.02C32.0569 31.5316 32.819 32.3245 33.2927 33.2888C33.7033 34.1202 33.9303 35.0301 33.9584 35.9569V39.75C33.9584 40.2473 33.7608 40.7242 33.4092 41.0758C33.0576 41.4275 32.5807 41.625 32.0834 41.625H24.5834C24.0861 41.625 23.6092 41.4275 23.2575 41.0758C22.9059 40.7242 22.7084 40.2473 22.7084 39.75V35.9588C22.7093 35.8743 22.713 35.7899 22.7196 35.7056C22.781 34.8647 23.0038 34.0435 23.3759 33.2869C23.8491 32.3229 24.6106 31.53 25.5546 31.0181C25.1457 30.567 24.8529 30.023 24.7014 29.4332C24.5498 28.8435 24.5442 28.2257 24.6849 27.6333C24.8256 27.0409 25.1085 26.4917 25.509 26.0331C25.9096 25.5745 26.4158 25.2203 26.9839 25.0012C27.552 24.7821 28.1649 24.7046 28.7697 24.7755C29.3744 24.8463 29.9529 25.0634 30.4549 25.4078C30.957 25.7523 31.3677 26.2139 31.6514 26.7526C31.9351 27.2914 32.0834 27.8911 32.0834 28.5ZM24.5834 36V39.75H32.0834V36C32.0834 36 32.0834 32.25 28.3334 32.25C24.5834 32.25 24.5834 36 24.5834 36ZM30.2084 28.5C30.2084 28.9973 30.0108 29.4742 29.6592 29.8258C29.3076 30.1775 28.8307 30.375 28.3334 30.375C27.8361 30.375 27.3592 30.1775 27.0075 29.8258C26.6559 29.4742 26.4584 28.9973 26.4584 28.5C26.4584 28.0027 26.6559 27.5258 27.0075 27.1742C27.3592 26.8226 27.8361 26.625 28.3334 26.625C28.8307 26.625 29.3076 26.8226 29.6592 27.1742C30.0108 27.5258 30.2084 28.0027 30.2084 28.5Z" fill="#0A3161"/>
</svg>
