<svg width="40" height="41" viewBox="0 0 40 41" fill="none" xmlns="http://www.w3.org/2000/svg">
<rect y="0.5" width="40" height="40" rx="8" fill="#E7EAEF"/>
<path d="M16.25 26.75V31.75L20 29.25L23.75 31.75V26.75M22.4463 10.8437L22.0425 10.2887C21.808 9.96693 21.5007 9.70511 21.1457 9.5246C20.7908 9.34409 20.3982 9.25 20 9.25C19.6018 9.25 19.2092 9.34409 18.8543 9.5246C18.4993 9.70511 18.1921 9.96693 17.9575 10.2887L17.5538 10.8437L16.875 10.7375C16.4817 10.6754 16.0793 10.7073 15.7006 10.8305C15.322 10.9537 14.9778 11.1646 14.6962 11.4462C14.4147 11.7278 14.2037 12.0719 14.0805 12.4506C13.9574 12.8292 13.9255 13.2317 13.9875 13.625L14.0938 14.3037L13.5388 14.7075C13.2165 14.9417 12.9542 15.2489 12.7734 15.6039C12.5926 15.9588 12.4983 16.3516 12.4983 16.75C12.4983 17.1484 12.5926 17.5411 12.7734 17.8961C12.9542 18.2511 13.2165 18.5582 13.5388 18.7925L14.0938 19.1962L13.9875 19.8737C13.9253 20.2671 13.957 20.6697 14.08 21.0485C14.2031 21.4273 14.4141 21.7717 14.6957 22.0534C14.9772 22.3351 15.3215 22.5462 15.7003 22.6694C16.079 22.7927 16.4816 22.8246 16.875 22.7625L17.5538 22.6562L17.9575 23.2112C18.1921 23.533 18.4993 23.7948 18.8543 23.9754C19.2092 24.1559 19.6018 24.2499 20 24.2499C20.3982 24.2499 20.7908 24.1559 21.1457 23.9754C21.5007 23.7948 21.808 23.533 22.0425 23.2112L22.4463 22.6562L23.1238 22.7625C23.5172 22.8247 23.9197 22.793 24.2986 22.6699C24.6774 22.5469 25.0217 22.3359 25.3034 22.0543C25.5851 21.7727 25.7962 21.4285 25.9195 21.0497C26.0427 20.671 26.0746 20.2684 26.0125 19.875L25.9063 19.1962L26.4613 18.7925C26.7831 18.5579 27.0449 18.2506 27.2254 17.8957C27.4059 17.5408 27.5 17.1482 27.5 16.75C27.5 16.3518 27.4059 15.9592 27.2254 15.6042C27.0449 15.2493 26.7831 14.942 26.4613 14.7075L25.9063 14.3037L26.0125 13.6262C26.0748 13.2328 26.0431 12.8302 25.92 12.4514C25.7969 12.0726 25.586 11.7283 25.3044 11.4466C25.0228 11.1649 24.6785 10.9538 24.2998 10.8305C23.921 10.7073 23.5185 10.6754 23.125 10.7375L22.4463 10.8437Z" stroke="#0A3161" stroke-width="2" stroke-linecap="round" stroke-linejoin="round"/>
</svg>
