<svg width="40" height="40" viewBox="0 0 40 40" fill="none" xmlns="http://www.w3.org/2000/svg">
<path d="M19.9545 0H20.0455C31.0591 0 40 8.9409 40 19.9545V20.0455C40 31.0591 31.0591 40 20.0455 40H19.9545C8.9409 40 0 31.0591 0 20.0455V19.9545C0 8.9409 8.9409 0 19.9545 0Z" fill="#FFFA00"/>
<path d="M26.2585 16.341C26.2557 16.6087 26.2276 16.8763 26.2024 17.144C26.194 17.2323 26.1912 17.322 26.1898 17.4102C26.187 17.563 26.3089 17.7017 26.4617 17.6919C26.5346 17.6877 26.6088 17.6681 26.6789 17.6443C26.9129 17.5616 27.1442 17.4733 27.3768 17.385C27.587 17.3037 27.8014 17.2309 28.0186 17.172C28.2555 17.1075 28.4923 17.0599 28.7333 17.0991C29.2238 17.179 29.5434 17.7073 29.364 18.1712C29.3135 18.3015 29.2365 18.4136 29.144 18.5174C29.0164 18.6589 28.8721 18.7794 28.7151 18.8859C28.5301 19.0106 28.3438 19.1326 28.1574 19.2559C27.8463 19.4605 27.5352 19.6637 27.2254 19.8711C27.0965 19.9566 26.9718 20.0477 26.8499 20.1416C26.7826 20.1934 26.7195 20.2537 26.6621 20.3167C26.5528 20.4387 26.4925 20.5942 26.5023 20.7568C26.5121 20.9291 26.5416 21.0973 26.5892 21.2627C26.7364 21.7784 26.962 22.2577 27.2353 22.7159C27.9682 23.9393 29.0066 24.8951 30.2427 25.6757C30.5818 25.8901 30.9447 26.0639 31.3021 26.2474C31.3525 26.2741 31.4016 26.3007 31.4507 26.3301C31.4997 26.3596 31.5431 26.3988 31.5754 26.4464C31.6258 26.5179 31.6328 26.5936 31.5894 26.6721C31.553 26.7393 31.4997 26.7912 31.4422 26.8388C31.3778 26.8921 31.3077 26.9369 31.2348 26.9776C30.8172 27.2144 30.3688 27.391 29.9049 27.5143C29.6807 27.5746 29.4565 27.6376 29.2336 27.7035C29.0963 27.7441 28.9674 27.8044 28.8399 27.8703C28.6254 27.981 28.5035 28.1589 28.4587 28.3902C28.4335 28.5191 28.418 28.6508 28.3942 28.7798C28.3353 29.1063 28.2176 29.2254 27.8981 29.2815C27.786 29.3011 27.6711 29.3123 27.5576 29.3193C27.2717 29.3347 26.9858 29.3431 26.6999 29.3585C26.6915 29.3585 26.6831 29.3585 26.6761 29.3585C25.534 29.4258 24.4297 29.7916 23.4501 30.383C23.3982 30.4138 23.3464 30.446 23.2931 30.4769C22.8965 30.7165 22.4929 30.9449 22.0599 31.1131C21.5764 31.3009 21.0775 31.413 20.5604 31.4592C20.1246 31.4985 19.6902 31.4929 19.2571 31.4438C18.6083 31.3709 17.9931 31.1818 17.4115 30.8847C17.141 30.7459 16.8803 30.5918 16.6225 30.4334C16.6085 30.425 16.5945 30.4166 16.5791 30.4068C15.5504 29.7804 14.3803 29.4006 13.1765 29.3515C13.1681 29.3515 13.1597 29.3515 13.1513 29.3515C12.899 29.3417 12.6481 29.3319 12.3959 29.3165C12.2488 29.3081 12.1016 29.2885 11.9573 29.2492C11.7737 29.1988 11.6405 29.0376 11.6055 28.8512C11.5859 28.7489 11.5705 28.6466 11.5523 28.5443C11.5481 28.5219 11.548 28.4981 11.5438 28.4757C11.5018 28.1758 11.3533 27.9557 11.0716 27.8282C10.8992 27.7497 10.7226 27.6867 10.5405 27.6362C10.2265 27.5493 9.90982 27.4723 9.60291 27.3615C9.33244 27.2649 9.07179 27.1499 8.82094 27.0126C8.74527 26.972 8.67239 26.9257 8.60232 26.8781C8.55467 26.8458 8.50983 26.8094 8.47059 26.7688C8.34447 26.637 8.35707 26.4647 8.50002 26.3525C8.5827 26.2867 8.67939 26.2432 8.77328 26.197C9.42773 25.8761 10.0486 25.5005 10.6259 25.0549C11.4976 24.3836 12.2361 23.589 12.7953 22.6318C12.9943 22.2885 13.1596 21.9269 13.2956 21.5542C13.3853 21.3075 13.4582 21.0609 13.4764 20.8016C13.489 20.611 13.4245 20.4218 13.2942 20.2831C13.2003 20.1836 13.091 20.1037 12.9803 20.0238C12.8149 19.9061 12.6481 19.7898 12.48 19.6791C12.1184 19.4409 11.7555 19.2068 11.3939 18.97C11.2355 18.8663 11.0828 18.7542 10.9454 18.6239C10.8459 18.5286 10.7563 18.4263 10.6848 18.3071C10.5362 18.0577 10.525 17.8012 10.6357 17.5378C10.7016 17.3808 10.8249 17.2477 10.9791 17.1762C11.1991 17.0753 11.4289 17.0627 11.6602 17.1005C11.9096 17.1412 12.1492 17.2183 12.3861 17.3037C12.6285 17.3906 12.8668 17.4859 13.1078 17.577C13.2199 17.6191 13.3334 17.6611 13.4525 17.6793C13.4806 17.6835 13.5086 17.6919 13.5366 17.6905C13.6754 17.6863 13.7903 17.6415 13.7889 17.4551C13.7889 17.3654 13.7861 17.2743 13.7819 17.1846C13.7609 16.7362 13.7342 16.2877 13.723 15.8393C13.6978 14.7714 13.702 13.6994 13.9809 12.6623C14.1518 12.0275 14.4475 11.4375 14.8469 10.9134C15.6752 9.8245 16.7682 9.13361 18.0757 8.76505C18.7904 8.56325 19.5206 8.49738 20.2605 8.5198C20.9598 8.54082 21.6563 8.65994 22.3178 8.88977C23.1025 9.16444 23.8159 9.56244 24.4227 10.1272C25.1121 10.769 25.6433 11.5188 25.932 12.4269C26.0623 12.8375 26.145 13.2579 26.1954 13.6839C26.3005 14.5654 26.2711 15.4525 26.2627 16.3382L26.2585 16.341Z" fill="white"/>
<path d="M19.9851 32.0699C19.7217 32.0699 19.4554 32.0544 19.1919 32.025C18.4828 31.9451 17.7933 31.7363 17.1459 31.4042C16.8572 31.2556 16.5769 31.0903 16.3177 30.9319L16.2756 30.9067C15.3059 30.3153 14.2254 29.9804 13.1533 29.9369H13.1281C12.9053 29.9271 12.6376 29.9159 12.3629 29.9005C12.1569 29.8879 11.9733 29.8598 11.8038 29.8136C11.4128 29.7071 11.1101 29.3722 11.0316 28.9616C11.0162 28.8845 11.0036 28.806 10.991 28.7289L10.977 28.6434C10.9728 28.6182 10.97 28.5902 10.9671 28.5636C10.9489 28.4346 10.9125 28.3996 10.8326 28.3632C10.6897 28.2987 10.5383 28.244 10.3842 28.2006C10.3113 28.1796 10.2384 28.16 10.1642 28.1403C9.91751 28.0745 9.66245 28.0044 9.40599 27.9133C9.10329 27.8054 8.81181 27.6751 8.53994 27.5279C8.45025 27.4789 8.36056 27.4242 8.27227 27.364C8.18959 27.3065 8.11392 27.2448 8.04805 27.1762C7.87148 26.9926 7.78318 26.7586 7.7986 26.5161C7.81542 26.2737 7.93454 26.0537 8.13354 25.8939C8.25686 25.7958 8.38018 25.7369 8.47968 25.6879L8.51331 25.6711C9.15374 25.3572 9.74233 24.9942 10.2665 24.5906C11.1283 23.9264 11.7898 23.1892 12.2873 22.3358C12.4582 22.0429 12.6124 21.7107 12.7427 21.352C12.8338 21.1025 12.8772 20.926 12.8885 20.762C12.8899 20.7312 12.8815 20.7017 12.8646 20.6849C12.8072 20.6247 12.7245 20.563 12.6362 20.5013C12.4596 20.3752 12.3013 20.2659 12.1527 20.1692C11.9313 20.0235 11.7085 19.8791 11.4871 19.7348L11.068 19.4615C10.855 19.3214 10.6855 19.191 10.5369 19.0509C10.387 18.9094 10.2693 18.765 10.1768 18.6095C9.93292 18.203 9.90349 17.7546 10.0913 17.3118C10.2146 17.0189 10.4472 16.7764 10.7289 16.6461C11.0358 16.5046 11.3806 16.4639 11.7505 16.5256C12.0616 16.5774 12.3433 16.6713 12.5802 16.7568C12.7427 16.8157 12.9025 16.8773 13.0636 16.939C13.1029 16.9544 13.1421 16.9698 13.1814 16.9838L13.1757 16.8717C13.1589 16.541 13.1421 16.1977 13.1337 15.8571C13.1085 14.7836 13.1085 13.6415 13.4112 12.5134C13.599 11.8127 13.9241 11.1568 14.3768 10.5626C15.2512 9.41351 16.441 8.62032 17.9125 8.2055C18.644 7.9995 19.4176 7.91262 20.2738 7.93784C21.06 7.96166 21.8111 8.0976 22.5062 8.34144C23.4087 8.65675 24.1851 9.11501 24.8157 9.7022C25.6356 10.466 26.1807 11.3012 26.4834 12.2527C26.6165 12.6731 26.7104 13.1202 26.7707 13.6177C26.8674 14.4263 26.8562 15.2307 26.8464 16.0099L26.8421 16.3462C26.8393 16.562 26.8225 16.7708 26.8043 16.974C26.9262 16.9278 27.0482 16.8815 27.1645 16.8367C27.4181 16.74 27.6466 16.6643 27.8624 16.6055C28.1384 16.5298 28.4678 16.4611 28.8251 16.52C29.2385 16.5872 29.5987 16.8381 29.8117 17.2081C30.0205 17.571 30.0555 17.9984 29.9098 18.3796C29.8383 18.5646 29.7304 18.737 29.5791 18.9052C29.4277 19.0733 29.2525 19.2247 29.0423 19.3676C28.898 19.4657 28.7522 19.561 28.6065 19.6577L28.1721 19.9436C27.9647 20.0795 27.7559 20.2169 27.5499 20.3542C27.4391 20.4285 27.3228 20.5112 27.2065 20.6022C27.1701 20.6303 27.1322 20.6653 27.0958 20.7059C27.0874 20.7158 27.0846 20.7214 27.0846 20.7228C27.0916 20.8461 27.1126 20.9708 27.1504 21.0997C27.2752 21.5328 27.4658 21.963 27.7362 22.4142C28.3767 23.4821 29.2974 24.3874 30.553 25.1792C30.7969 25.3333 31.0575 25.4651 31.3336 25.6066C31.4121 25.6459 31.4906 25.6865 31.5676 25.7271C31.6279 25.758 31.6868 25.7916 31.7442 25.8252C31.8661 25.8967 31.9698 25.992 32.0525 26.1097C32.2305 26.3634 32.2487 26.6773 32.103 26.9492C32.0147 27.1117 31.8956 27.221 31.8143 27.2883C31.7078 27.3766 31.6027 27.4396 31.5228 27.4845C31.0758 27.7381 30.5825 27.9371 30.0541 28.0773C29.8566 28.1291 29.6477 28.188 29.3997 28.2623C29.3002 28.2917 29.1965 28.3421 29.1082 28.3884C29.0704 28.408 29.0479 28.4234 29.0325 28.5019C29.0199 28.565 29.0115 28.628 29.0017 28.6925C28.9919 28.757 28.9821 28.82 28.9709 28.8831C28.8686 29.4506 28.5603 29.7604 27.9969 29.857C27.8694 29.8795 27.732 29.8949 27.5891 29.9019C27.4475 29.9103 27.306 29.9159 27.1631 29.9215C27.0187 29.9271 26.8744 29.9327 26.7314 29.9411H26.716C25.6944 30.0028 24.6714 30.3279 23.7507 30.8843L23.5937 30.9782C23.1943 31.2192 22.7571 31.4701 22.2694 31.6592C21.7509 31.861 21.1931 31.99 20.6116 32.0432C20.4041 32.0614 20.1939 32.0712 19.9837 32.0712L19.9851 32.0699ZM12.1723 28.6981C12.248 28.7149 12.3321 28.7247 12.4302 28.7303C12.6951 28.7457 12.9543 28.757 13.1729 28.764H13.1996C14.4706 28.8172 15.7445 29.211 16.8838 29.9047L16.9287 29.9327C17.2034 30.1009 17.4374 30.2382 17.6784 30.3616C18.2011 30.6292 18.7533 30.7974 19.3223 30.8605C19.7189 30.9053 20.1169 30.9095 20.5079 30.8745C20.9871 30.831 21.4258 30.7301 21.8476 30.5662C22.2512 30.4092 22.6352 30.1892 22.9911 29.9748L23.1481 29.8795C24.2314 29.225 25.4393 28.8424 26.6431 28.7724H26.667C26.8183 28.7626 26.9683 28.7556 27.1182 28.75C27.2542 28.7443 27.3915 28.7387 27.5274 28.7317C27.6255 28.7261 27.718 28.7163 27.8021 28.7023C27.8077 28.7023 27.8119 28.7009 27.8175 28.6995C27.8189 28.6925 27.8203 28.6841 27.8231 28.6743C27.8329 28.621 27.8399 28.5678 27.8483 28.5145C27.861 28.4346 27.8722 28.3548 27.8876 28.2763C27.9689 27.8601 28.2071 27.5391 28.5743 27.3486C28.7032 27.2813 28.877 27.1972 29.0718 27.1397C29.331 27.0627 29.5496 27.001 29.7584 26.9464C30.0934 26.8581 30.4101 26.7403 30.703 26.5974C30.4479 26.4671 30.1873 26.3311 29.9322 26.17C28.5182 25.2773 27.4728 24.2459 26.7356 23.0168C26.4119 22.4773 26.1807 21.956 26.0279 21.4235C25.9677 21.2118 25.9312 20.9988 25.92 20.7886C25.9032 20.4719 26.0125 20.165 26.2297 19.924C26.3124 19.8315 26.4021 19.7474 26.4946 19.6773C26.6319 19.5708 26.7693 19.4727 26.9024 19.383C27.1112 19.2429 27.3228 19.1042 27.533 18.9668L27.9675 18.6809C28.109 18.5884 28.2492 18.4959 28.3893 18.4006C28.5196 18.3124 28.6247 18.2227 28.7116 18.126C28.7663 18.0643 28.8013 18.0125 28.8209 17.9606C28.8475 17.8905 28.8209 17.8247 28.8013 17.7924C28.7649 17.7294 28.706 17.6859 28.6429 17.6761C28.507 17.6537 28.3374 17.6915 28.1749 17.7364C27.9969 17.7854 27.8049 17.8485 27.5877 17.9326C27.3607 18.0195 27.1182 18.112 26.8744 18.1974C26.7412 18.2437 26.6193 18.2703 26.4988 18.2773C26.269 18.2899 26.0405 18.2073 25.8724 18.0461C25.6972 17.8779 25.6005 17.6425 25.6047 17.4001C25.6061 17.3174 25.6089 17.2067 25.6201 17.0917L25.6299 16.9796C25.651 16.7554 25.6706 16.5438 25.6734 16.3364L25.6776 15.9959C25.6874 15.2209 25.6972 14.488 25.6103 13.7578C25.5599 13.3346 25.4814 12.9576 25.3707 12.6087C25.131 11.8533 24.6896 11.1835 24.0211 10.5598C23.5026 10.0764 22.8818 9.71341 22.1222 9.44714C21.5407 9.24394 20.9072 9.12902 20.2416 9.1094C19.5059 9.08558 18.8486 9.15986 18.2334 9.33363C16.9945 9.68258 16.0388 10.3174 15.3115 11.2732C14.9513 11.7454 14.6935 12.2667 14.5449 12.8189C14.2829 13.7957 14.2829 14.8425 14.3067 15.8305C14.3137 16.1556 14.3305 16.4906 14.3473 16.8143L14.3641 17.1618C14.3683 17.2599 14.3711 17.358 14.3725 17.4561C14.3753 17.934 14.046 18.2647 13.5527 18.2801C13.4658 18.2801 13.4 18.2689 13.3635 18.2619C13.1799 18.2339 13.0244 18.175 12.8997 18.1288C12.8156 18.0965 12.7315 18.0643 12.6474 18.0321C12.4933 17.9732 12.3391 17.9144 12.185 17.8583C12 17.791 11.78 17.7182 11.5627 17.6817C11.3792 17.6523 11.2797 17.6845 11.2208 17.7112C11.2068 17.7182 11.1844 17.7392 11.1717 17.7686C11.1255 17.8779 11.1395 17.9368 11.183 18.0097C11.2208 18.0727 11.2741 18.1358 11.3441 18.2031C11.4408 18.2941 11.5571 18.3838 11.7099 18.4833L12.1261 18.7552C12.3503 18.9009 12.5746 19.0467 12.7974 19.1938C12.9585 19.3003 13.1281 19.4167 13.3173 19.5512C13.4476 19.6451 13.5878 19.7474 13.7167 19.8847C13.9563 20.1398 14.0811 20.4887 14.0572 20.8447C14.0334 21.2006 13.9297 21.5202 13.8428 21.7584C13.6873 22.183 13.5051 22.5768 13.2991 22.93C12.7315 23.9025 11.9523 24.7742 10.9812 25.5225C10.4668 25.9191 9.89648 26.2807 9.28407 26.5974C9.44804 26.6773 9.62042 26.7502 9.79979 26.8132C10.0128 26.8889 10.2342 26.9492 10.4697 27.0122C10.5453 27.0332 10.6224 27.0529 10.6981 27.0739C10.9083 27.1327 11.1157 27.207 11.3133 27.2967C11.7715 27.5041 12.0532 27.8839 12.1247 28.3954C12.1275 28.4136 12.1289 28.4318 12.1303 28.4486V28.4458L12.1443 28.5369C12.1527 28.5916 12.1625 28.6462 12.1723 28.6995V28.6981Z" fill="#1D1D1B"/>
</svg>
