<svg width="40" height="40" viewBox="0 0 40 40" fill="none" xmlns="http://www.w3.org/2000/svg">
<path d="M20.0455 0H19.9545C8.93391 0 0 8.93391 0 19.9545V20.0455C0 31.0661 8.93391 40 19.9545 40H20.0455C31.0661 40 40 31.0661 40 20.0455V19.9545C40 8.93391 31.0661 0 20.0455 0Z" fill="#00E510"/>
<path d="M23.8979 25.8495C18.7787 25.8495 14.6137 21.6832 14.6123 16.5639C14.6137 15.2662 15.6704 14.2109 16.9653 14.2109C17.0984 14.2109 17.2301 14.2221 17.3562 14.2446C17.6337 14.2908 17.8972 14.3847 18.1396 14.5263C18.1747 14.5473 18.1985 14.5809 18.2041 14.6201L18.745 18.0297C18.752 18.0704 18.7394 18.1096 18.7128 18.139C18.4143 18.4698 18.0331 18.708 17.6085 18.8271L17.4039 18.8846L17.481 19.0822C18.1788 20.8592 19.5999 22.2788 21.3782 22.9795L21.5758 23.0579L21.6333 22.8533C21.7524 22.4287 21.9906 22.0475 22.3214 21.749C22.3452 21.7266 22.3774 21.7154 22.4097 21.7154C22.4167 21.7154 22.4237 21.7154 22.4321 21.7168L25.8417 22.2577C25.8823 22.2648 25.916 22.2872 25.937 22.3222C26.0771 22.5646 26.171 22.8295 26.2187 23.107C26.2411 23.2303 26.2509 23.3606 26.2509 23.4966C26.2509 24.7929 25.1956 25.8481 23.8979 25.8495Z" fill="#FDFDFD"/>
<path d="M32.9768 18.8768C32.7007 15.7573 31.2713 12.8635 28.952 10.7291C26.6187 8.58219 23.5917 7.39941 20.4259 7.39941C13.4778 7.39941 7.82459 13.0526 7.82459 20.0008C7.82459 22.3327 8.46782 24.6043 9.68563 26.5831L6.96973 32.5951L15.6654 31.6688C17.1775 32.2882 18.7779 32.6021 20.4245 32.6021C20.8575 32.6021 21.3018 32.5797 21.7474 32.5334C22.1398 32.4914 22.5364 32.4297 22.926 32.3512C28.7446 31.1755 32.9922 26.0113 33.0259 20.068V20.0008C33.0259 19.6224 33.009 19.244 32.9754 18.8768H32.9768ZM16.0003 29.0299L11.1893 29.5428L12.6258 26.3603L12.3385 25.9749C12.3175 25.9469 12.2964 25.9188 12.2726 25.8866C11.0254 24.1643 10.3667 22.1295 10.3667 20.0022C10.3667 14.4554 14.8792 9.94294 20.4259 9.94294C25.6223 9.94294 30.0269 13.9972 30.4515 19.1725C30.4739 19.45 30.4865 19.7289 30.4865 20.0036C30.4865 20.082 30.4851 20.1591 30.4837 20.2418C30.3772 24.8818 27.1358 28.8225 22.6009 29.8259C22.2547 29.903 21.9002 29.9619 21.547 29.9997C21.1799 30.0417 20.8029 30.0628 20.4287 30.0628C19.096 30.0628 17.8011 29.8049 16.5777 29.2948C16.4418 29.2401 16.3086 29.1813 16.1839 29.121L16.0017 29.0327L16.0003 29.0299Z" fill="#FDFDFD"/>
</svg>
