<svg width="40" height="40" viewBox="0 0 40 40" fill="none" xmlns="http://www.w3.org/2000/svg">
<path d="M40 20.0007C40 30.102 32.5124 38.4529 22.7853 39.808C21.8758 39.9341 20.9452 40 20.0007 40C18.9104 40 17.8398 39.9131 16.7971 39.7449C7.27324 38.2118 0 29.9548 0 20.0007C0 8.95491 8.95491 0 19.9993 0C31.0437 0 40 8.95491 40 20.0007Z" fill="#1877F2"/>
<path d="M22.7856 16.0583V20.4152H28.1753L27.3219 26.2842H22.7856V39.8063C21.8761 39.9324 20.9455 39.9983 20.001 39.9983C18.9107 39.9983 17.84 39.9114 16.7974 39.7432V26.2842H11.8267V20.4152H16.7974V15.0843C16.7974 11.777 19.4783 9.09473 22.787 9.09473V9.09753C22.7968 9.09753 22.8052 9.09473 22.815 9.09473H28.1767V14.1706H24.6732C23.632 14.1706 22.787 15.0156 22.787 16.0569L22.7856 16.0583Z" fill="white"/>
</svg>
