<svg width="40" height="40" viewBox="0 0 40 40" fill="none" xmlns="http://www.w3.org/2000/svg">
<path d="M20.0455 0H19.9545C8.93391 0 0 8.93391 0 19.9545V20.0455C0 31.0661 8.93391 40 19.9545 40H20.0455C31.0661 40 40 31.0661 40 20.0455V19.9545C40 8.93391 31.0661 0 20.0455 0Z" fill="black"/>
<path d="M30.1409 15.8867V19.6635C29.4809 19.599 28.6232 19.4491 27.6745 19.1015C26.4357 18.6475 25.5135 18.0267 24.9095 17.546V25.1794L24.8941 25.1556C24.9039 25.3069 24.9095 25.4611 24.9095 25.6166C24.9095 29.4074 21.8251 32.4933 18.0329 32.4933C14.2407 32.4933 11.1562 29.4074 11.1562 25.6166C11.1562 21.8258 14.2407 18.7386 18.0329 18.7386C18.4043 18.7386 18.7686 18.768 19.1246 18.8255V22.5476C18.7826 22.4256 18.4155 22.3598 18.0329 22.3598C16.2377 22.3598 14.7761 23.82 14.7761 25.6166C14.7761 27.4132 16.2377 28.8735 18.0329 28.8735C19.8281 28.8735 21.2897 27.4118 21.2897 25.6166C21.2897 25.5493 21.2883 25.4821 21.2841 25.4148V10.5811H25.0581C25.0721 10.9006 25.0847 11.2229 25.0987 11.5424C25.124 12.1716 25.3482 12.7756 25.7392 13.2703C26.1974 13.8519 26.8743 14.5274 27.8244 15.0669C28.7143 15.5714 29.5496 15.7872 30.1409 15.8895V15.8867Z" fill="#FF004F"/>
<path d="M28.8431 12.8202V16.597C28.183 16.5325 27.3254 16.3825 26.3766 16.035C25.1378 15.5809 24.2157 14.9601 23.6117 14.4795V22.1128L23.5963 22.089C23.6061 22.2404 23.6117 22.3945 23.6117 22.5501C23.6117 26.3409 20.5272 29.4267 16.735 29.4267C12.9429 29.4267 9.8584 26.3409 9.8584 22.5501C9.8584 18.7593 12.9429 15.672 16.735 15.672C17.1064 15.672 17.4708 15.7015 17.8267 15.7589V19.481C17.4848 19.3591 17.1176 19.2932 16.735 19.2932C14.9399 19.2932 13.4782 20.7535 13.4782 22.5501C13.4782 24.3467 14.9399 25.8069 16.735 25.8069C18.5302 25.8069 19.9919 24.3453 19.9919 22.5501C19.9919 22.4828 19.9905 22.4155 19.9863 22.3483V7.51172H23.7602C23.7742 7.83124 23.7869 8.15356 23.8009 8.47308C23.8261 9.1023 24.0503 9.7063 24.4413 10.201C24.8996 10.7826 25.5764 11.458 26.5266 11.9976C27.4165 12.5007 28.2517 12.7179 28.8431 12.8202Z" fill="#00F7EF"/>
<path d="M29.6693 14.4707V18.2475C29.0092 18.183 28.1515 18.0331 27.2028 17.6855C25.964 17.2315 25.0419 16.6106 24.4379 16.13V23.7634L24.4224 23.7395C24.4323 23.8909 24.4379 24.045 24.4379 24.2006C24.4379 27.9914 21.3534 31.0772 17.5612 31.0772C13.769 31.0772 10.6846 27.9914 10.6846 24.2006C10.6846 20.4098 13.769 17.3226 17.5612 17.3226C17.9326 17.3226 18.2969 17.352 18.6529 17.4094V21.1315C18.311 21.0096 17.9438 20.9438 17.5612 20.9438C15.766 20.9438 14.3044 22.404 14.3044 24.2006C14.3044 25.9972 15.766 27.4574 17.5612 27.4574C19.3564 27.4574 20.8181 25.9958 20.8181 24.2006C20.8181 24.1333 20.8167 24.0661 20.8124 23.9988V9.16504H24.5864C24.6004 9.48456 24.613 9.80688 24.627 10.1264C24.6523 10.7556 24.8765 11.3596 25.2675 11.8543C25.7257 12.4359 26.4026 13.1114 27.3528 13.6509C28.2426 14.154 29.0779 14.3712 29.6693 14.4735V14.4707Z" fill="white"/>
</svg>
