<svg width="35" height="35" viewBox="0 0 35 35" fill="none" xmlns="http://www.w3.org/2000/svg">
<path d="M29.0938 30.625C26.0556 30.625 23.048 29.9688 20.071 28.6562C17.0941 27.3438 14.3899 25.4722 11.9583 23.0417C9.52681 20.6111 7.65528 17.9132 6.34375 14.9479C5.03222 11.9826 4.37597 8.96875 4.375 5.90625V4.375H12.9792L14.3281 11.7031L10.1719 15.8958C10.7066 16.8438 11.3021 17.7431 11.9583 18.5938C12.6146 19.4444 13.3194 20.2344 14.0729 20.9635C14.7778 21.6684 15.5497 22.3431 16.3888 22.9877C17.2278 23.6323 18.1329 24.2336 19.1042 24.7917L23.3333 20.5625L30.625 22.0573V30.625H29.0938Z" fill="#B31942"/>
</svg>
