<svg width="35" height="35" viewBox="0 0 35 35" fill="none" xmlns="http://www.w3.org/2000/svg">
<path d="M5.83341 29.1663C5.03133 29.1663 4.34494 28.881 3.77425 28.3103C3.20355 27.7396 2.91772 27.0527 2.91675 26.2497V8.74967C2.91675 7.94759 3.20258 7.2612 3.77425 6.69051C4.34591 6.11981 5.0323 5.83398 5.83341 5.83301H29.1667C29.9688 5.83301 30.6557 6.11884 31.2274 6.69051C31.799 7.26217 32.0844 7.94856 32.0834 8.74967V26.2497C32.0834 27.0518 31.7981 27.7386 31.2274 28.3103C30.6567 28.882 29.9698 29.1673 29.1667 29.1663H5.83341ZM17.5001 18.7028C17.6216 18.7028 17.7495 18.6843 17.8836 18.6474C18.0178 18.6104 18.1452 18.556 18.2657 18.484L28.5834 12.0309C28.7779 11.9094 28.9237 11.7577 29.0209 11.5759C29.1181 11.3941 29.1667 11.1934 29.1667 10.9736C29.1667 10.4875 28.9602 10.1229 28.547 9.87988C28.1338 9.63683 27.7084 9.64898 27.2709 9.91634L17.5001 16.0413L7.72925 9.91634C7.29175 9.64898 6.8664 9.64315 6.45321 9.89884C6.04001 10.1545 5.83341 10.5128 5.83341 10.9736C5.83341 11.2167 5.88203 11.4296 5.97925 11.6124C6.07647 11.7952 6.2223 11.9347 6.41675 12.0309L16.7345 18.484C16.856 18.557 16.9838 18.6119 17.118 18.6488C17.2522 18.6858 17.3795 18.7038 17.5001 18.7028Z" fill="#B31942"/>
</svg>
