<svg width="35" height="35" viewBox="0 0 35 35" fill="none" xmlns="http://www.w3.org/2000/svg">
<path d="M17.5 2.91699C20.981 2.91699 24.3194 4.2998 26.7808 6.76122C29.2422 9.22263 30.625 12.561 30.625 16.042C30.625 20.5249 28.1808 24.1941 25.6054 26.8264C24.3187 28.1273 22.9147 29.3067 21.4113 30.3497L20.79 30.7726L20.4983 30.9666L19.9485 31.3166L19.4585 31.6155L18.8519 31.9685C18.4401 32.2035 17.9741 32.3271 17.5 32.3271C17.0259 32.3271 16.5599 32.2035 16.1481 31.9685L15.5415 31.6155L14.7831 31.1489L14.5031 30.9666L13.9052 30.5685C12.2833 29.4711 10.7726 28.2178 9.39458 26.8264C6.81917 24.1926 4.375 20.5249 4.375 16.042C4.375 12.561 5.75781 9.22263 8.21922 6.76122C10.6806 4.2998 14.019 2.91699 17.5 2.91699ZM17.5 11.667C16.9255 11.667 16.3566 11.7802 15.8258 12C15.295 12.2199 14.8127 12.5421 14.4064 12.9484C14.0002 13.3547 13.6779 13.837 13.458 14.3678C13.2382 14.8986 13.125 15.4675 13.125 16.042C13.125 16.6165 13.2382 17.1854 13.458 17.7162C13.6779 18.247 14.0002 18.7293 14.4064 19.1356C14.8127 19.5418 15.295 19.8641 15.8258 20.084C16.3566 20.3038 16.9255 20.417 17.5 20.417C18.6603 20.417 19.7731 19.9561 20.5936 19.1356C21.4141 18.3151 21.875 17.2023 21.875 16.042C21.875 14.8817 21.4141 13.7689 20.5936 12.9484C19.7731 12.1279 18.6603 11.667 17.5 11.667Z" fill="#B31942"/>
</svg>
