<svg width="23" height="17" viewBox="0 0 23 17" fill="none" xmlns="http://www.w3.org/2000/svg">
<path d="M7.92706 13.0938L20.2864 0.734375C20.5781 0.442709 20.9184 0.296875 21.3073 0.296875C21.6962 0.296875 22.0364 0.442709 22.3281 0.734375C22.6198 1.02604 22.7656 1.37264 22.7656 1.77417C22.7656 2.17569 22.6198 2.52181 22.3281 2.8125L8.9479 16.2292C8.65623 16.5208 8.31595 16.6667 7.92706 16.6667C7.53817 16.6667 7.1979 16.5208 6.90623 16.2292L0.635395 9.95833C0.343728 9.66667 0.203728 9.32056 0.215395 8.92C0.227061 8.51944 0.379214 8.17285 0.671853 7.88021C0.964492 7.58757 1.31109 7.44174 1.71164 7.44271C2.1122 7.44368 2.45831 7.58951 2.74998 7.88021L7.92706 13.0938Z" fill="#B31942"/>
</svg>
